<svg id="icon" xmlns="http://www.w3.org/2000/svg" viewBox="0 0 2000 2000"><defs><style>.cls-1{fill:none;stroke:#2f4858;stroke-linecap:round;stroke-linejoin:round;stroke-width:175px;}.cls-2{fill:#2f4858;}</style></defs><rect class="cls-1" x="255.5" y="160.5" width="1489" height="1679" rx="11.11"/><line class="cls-1" x1="283.17" y1="580.39" x2="1702.32" y2="580.39"/><path class="cls-2" d="M1060.15,905a8.87,8.87,0,0,1,8.85,8.85v117.3a8.87,8.87,0,0,1-8.85,8.85H942.85a8.87,8.87,0,0,1-8.85-8.85V913.85a8.87,8.87,0,0,1,8.85-8.85h117.3m0-75H942.85A84,84,0,0,0,859,913.85v117.3A84,84,0,0,0,942.85,1115h117.3a84,84,0,0,0,83.85-83.85V913.85A84,84,0,0,0,1060.15,830Z"/><path class="cls-2" d="M1473.15,904a8.87,8.87,0,0,1,8.85,8.85v117.3a8.87,8.87,0,0,1-8.85,8.85h-117.3a8.87,8.87,0,0,1-8.85-8.85V912.85a8.87,8.87,0,0,1,8.85-8.85h117.3m0-75h-117.3A84,84,0,0,0,1272,912.85v117.3a84,84,0,0,0,83.85,83.85h117.3a84,84,0,0,0,83.85-83.85V912.85A84,84,0,0,0,1473.15,829Z"/><path class="cls-2" d="M646.15,905a8.87,8.87,0,0,1,8.85,8.85v117.3a8.87,8.87,0,0,1-8.85,8.85H528.85a8.87,8.87,0,0,1-8.85-8.85V913.85a8.87,8.87,0,0,1,8.85-8.85h117.3m0-75H528.85A84,84,0,0,0,445,913.85v117.3A84,84,0,0,0,528.85,1115h117.3A84,84,0,0,0,730,1031.15V913.85A84,84,0,0,0,646.15,830Z"/><path class="cls-2" d="M1059.15,1378a8.87,8.87,0,0,1,8.85,8.85v117.3a8.87,8.87,0,0,1-8.85,8.85H941.85a8.87,8.87,0,0,1-8.85-8.85v-117.3a8.87,8.87,0,0,1,8.85-8.85h117.3m0-75H941.85A84,84,0,0,0,858,1386.85v117.3A84,84,0,0,0,941.85,1588h117.3a84,84,0,0,0,83.85-83.85v-117.3a84,84,0,0,0-83.85-83.85Z"/><path class="cls-2" d="M1472.15,1377a8.87,8.87,0,0,1,8.85,8.85v117.3a8.87,8.87,0,0,1-8.85,8.85h-117.3a8.87,8.87,0,0,1-8.85-8.85v-117.3a8.87,8.87,0,0,1,8.85-8.85h117.3m0-75h-117.3a84,84,0,0,0-83.85,83.85v117.3a84,84,0,0,0,83.85,83.85h117.3a84,84,0,0,0,83.85-83.85v-117.3a84,84,0,0,0-83.85-83.85Z"/><path class="cls-2" d="M645.15,1378a8.87,8.87,0,0,1,8.85,8.85v117.3a8.87,8.87,0,0,1-8.85,8.85H527.85a8.87,8.87,0,0,1-8.85-8.85v-117.3a8.87,8.87,0,0,1,8.85-8.85h117.3m0-75H527.85A84,84,0,0,0,444,1386.85v117.3A84,84,0,0,0,527.85,1588h117.3A84,84,0,0,0,729,1504.15v-117.3A84,84,0,0,0,645.15,1303Z"/></svg>