<svg id="icon" xmlns="http://www.w3.org/2000/svg" viewBox="0 0 2000 2000"><defs><style>.cls-1{fill:none;stroke:#2f4858;stroke-linecap:round;stroke-linejoin:round;stroke-width:175px;}.cls-2{fill:#2f4858;}</style></defs><path class="cls-1" d="M1662,580.39V1784.63c0,5.7-5,10.37-11.09,10.37H349.09c-6.1,0-11.09-4.67-11.09-10.37V209.37c0-5.7,5-10.37,11.09-10.37h999.59Z"/><path class="cls-2" d="M642.86,1109.58v-63.92H725q-2-22.31-2-45.66t2-46.67H642.86V890.42h92.33q27.39-117.67,112.62-187.7t213.07-70q122.74,0,198.86,58.33t97.4,162.85h-94.36q-16.23-65.94-66-106T1060.88,707.8q-89.3,0-151.18,47.68T824.48,890.42h256.69v62.91H812.3q-2,22.32-2,46.67t2,45.66h268.87v63.92H823.46q24.36,86.25,86.24,134.43t151.18,48.19q86.22,0,135.95-39.06t66-104h94.36q-21.32,102.48-97.4,160.3t-198.86,57.83q-128.87,0-214.09-70t-112.62-187.7Z"/></svg>