<svg xmlns="http://www.w3.org/2000/svg" width="385.677" height="115.199" viewBox="0 0 385.677 115.199"><defs><style>.a{fill:#157399;}.b{fill:#70c9d7;}.c{fill:#e6275c;}.d{fill:#a53249;}.e{fill:#074a59;}.f{fill:#0e192a;}</style></defs><g transform="translate(0 -0.279)"><path class="a" d="M29.783,82.266c.6.014,1.571.061,2.822.13.161.454.348.9.533,1.343l5.7-8.865a41.788,41.788,0,0,1-.366-6.573c.058-2.21.239-4.421.492-6.617a22.506,22.506,0,0,1,2.6-8.588,10.118,10.118,0,0,1,8.452-5.65A7.419,7.419,0,0,1,55.47,49l3.813-5.931a25.112,25.112,0,0,0-6.887-.089c-7.01.919-12.015,4.383-14.82,10.331-.325.693-.56,1.421-.861,2.193a2.436,2.436,0,0,1-.068-.287c-.236-2.986-.55-5.968-.69-8.957-.236-5.056.533-10.112.461-15.172-.116-7.943,1.828-15.886,1.79-23.828a4.648,4.648,0,0,0-.765-2.555A11.613,11.613,0,0,0,32.195.826l-8.319,48.3q.922,4.468,1.947,8.916c1.691,7.3,3.553,14.557,5.9,21.7a51.574,51.574,0,0,0-7.287.321,13.028,13.028,0,0,0-6.344,2.641L16.2,93.673A10.377,10.377,0,0,0,21.242,97.7c.01,0,.021.01.031.014.031.01.058.024.089.034a8.965,8.965,0,0,0,1.937.584,2.376,2.376,0,0,0,.3.044c.041.007.082.007.123.014l1.913-2.976c-9.887-2.347-7.837-13.453,4.151-13.146Z" transform="translate(39.143 1.321)"/><path class="b" d="M33.193.282a14.772,14.772,0,0,0-1.9.082c-1.582.181-2.777.888-3.116,2.35A20.211,20.211,0,0,0,27.6,6.721a93.549,93.549,0,0,0,.772,13.364c.219,1.893.523,3.775.779,5.661.273,2.009.506,4.021.827,6.023q1.061,6.6,2.309,13.17a16.386,16.386,0,0,1-6.675,3.126,23.853,23.853,0,0,1-8.592.2A19.865,19.865,0,0,1,12.262,47.1l.43,8.968c.769.133,1.537.256,2.316.342a28.783,28.783,0,0,0,9.337-.325,14.123,14.123,0,0,0,9.016-5.78c.007.048.021.092.031.137l8.319-48.3A23.369,23.369,0,0,0,33.193.282Z" transform="translate(29.627 0)"/><path class="b" d="M17.136,35.76l1.889-10.966A8.191,8.191,0,0,0,17.136,35.76Z" transform="translate(38.207 59.234)"/><path class="c" d="M39.889,39.176h-.034l-2.412-8.51H35.236l-2.48,8.51h-.038L30.5,30.666h-2.19L31.55,41.793h2.221l2.518-8.51h.034l2.463,8.51h2.186l3.4-11.127H42.181l-2.292,8.51Z" transform="translate(68.399 73.422)"/><path class="c" d="M36.18,36.853h6.2V35.261h-6.2V32.347h6.706V30.666H34.028V41.793h8.978V40.109H36.18V36.853Z" transform="translate(82.22 73.422)"/><path class="c" d="M45.3,39.746a2.3,2.3,0,0,1-1.524.458H39.963V36.726h3.809a2.335,2.335,0,0,1,1.524.448,1.539,1.539,0,0,1,.543,1.267,1.616,1.616,0,0,1-.543,1.305Zm-5.333-7.5h3.515a2.267,2.267,0,0,1,1.346.345,1.388,1.388,0,0,1,.465,1.185,1.365,1.365,0,0,1-.519,1.148,2.062,2.062,0,0,1-1.291.4H39.963V32.251Zm5.722,3.57v-.027a2.927,2.927,0,0,0,1.3-.929,2.313,2.313,0,0,0,.454-1.442,2.348,2.348,0,0,0-1-2.074,4.607,4.607,0,0,0-2.654-.683H37.811V41.793h5.65a7.72,7.72,0,0,0,2.053-.239,4.294,4.294,0,0,0,1.411-.656,2.487,2.487,0,0,0,.81-.98,3.214,3.214,0,0,0-.328-3.119,2.729,2.729,0,0,0-1.722-.977Z" transform="translate(91.36 73.422)"/><path class="c" d="M49.2,32.292a3.2,3.2,0,0,0-.984-.591,3.379,3.379,0,0,0-2.391,0,3.034,3.034,0,0,0-.974.591,2.857,2.857,0,0,0-.656.881,2.546,2.546,0,0,0,0,2.169,2.885,2.885,0,0,0,.656.888,3.05,3.05,0,0,0,.974.6,3.3,3.3,0,0,0,3.375-.6,2.8,2.8,0,0,0,.663-.888,2.546,2.546,0,0,0,0-2.169A2.774,2.774,0,0,0,49.2,32.292Z" transform="translate(106.203 75.394)"/><path class="c" d="M57.319,37.792A2.906,2.906,0,0,1,56.7,39.06a3.007,3.007,0,0,1-1.257.84,5.9,5.9,0,0,1-2.057.3H51.262V32.251h2.121a5.979,5.979,0,0,1,2.057.3A3.012,3.012,0,0,1,56.7,33.4a2.875,2.875,0,0,1,.622,1.264,7.546,7.546,0,0,1,0,3.129Zm1.025-5.5A4.512,4.512,0,0,0,56.657,31.1a6.22,6.22,0,0,0-2.446-.437h-5.1V41.793h5.1a6.283,6.283,0,0,0,2.446-.437,4.512,4.512,0,0,0,1.688-1.189,4.925,4.925,0,0,0,.974-1.773,7.465,7.465,0,0,0,0-4.332A4.938,4.938,0,0,0,58.344,32.292Z" transform="translate(118.662 73.422)"/><path class="c" d="M55.512,36.853h6.2V35.261h-6.2V32.347h6.7V30.666H53.356V41.793h8.978V40.109H55.512Z" transform="translate(128.921 73.422)"/><path class="c" d="M66.355,37.065a3.052,3.052,0,0,0-.748-.676,3.672,3.672,0,0,0-1.052-.471q-.241-.061-.8-.195c-.376-.085-.755-.178-1.144-.273s-.748-.178-1.062-.256-.5-.12-.543-.133a2.706,2.706,0,0,1-1.059-.5,1.151,1.151,0,0,1-.407-.933,1.118,1.118,0,0,1,.215-.7,1.534,1.534,0,0,1,.543-.444,2.685,2.685,0,0,1,.724-.232,4.339,4.339,0,0,1,.775-.072,3.463,3.463,0,0,1,1.845.444,1.836,1.836,0,0,1,.81,1.524h2.156a3.059,3.059,0,0,0-.383-1.541A3.462,3.462,0,0,0,65.2,31.49a4.683,4.683,0,0,0-1.5-.676,7.128,7.128,0,0,0-1.821-.225,6.981,6.981,0,0,0-1.636.195,4.78,4.78,0,0,0-1.448.6,3.287,3.287,0,0,0-1.025,1.021,2.653,2.653,0,0,0-.386,1.455,3.065,3.065,0,0,0,.126.857,2.389,2.389,0,0,0,.441.8,3.045,3.045,0,0,0,.837.676,4.754,4.754,0,0,0,1.319.492c.847.208,1.565.376,2.145.506a15.067,15.067,0,0,1,1.524.413,1.892,1.892,0,0,1,.7.43,1.248,1.248,0,0,1,.318.943,1.416,1.416,0,0,1-.14.615,1.349,1.349,0,0,1-.448.536,2.481,2.481,0,0,1-.81.383,4.27,4.27,0,0,1-1.206.15,5.214,5.214,0,0,1-1.213-.133,3.014,3.014,0,0,1-.991-.42,2.029,2.029,0,0,1-.673-.741,2.257,2.257,0,0,1-.243-1.093H56.923a3.773,3.773,0,0,0,.43,1.787,3.585,3.585,0,0,0,1.1,1.237,4.793,4.793,0,0,0,1.619.717,8.064,8.064,0,0,0,1.985.232,8.233,8.233,0,0,0,1.79-.191,5.053,5.053,0,0,0,1.571-.618,3.423,3.423,0,0,0,1.11-1.08,2.927,2.927,0,0,0,.42-1.6,2.7,2.7,0,0,0-.147-.875,2.625,2.625,0,0,0-.448-.816Z" transform="translate(137.54 73.234)"/><rect class="c" width="2.152" height="11.127" transform="translate(208.435 104.088)"/><path class="c" d="M68.921,37.6H72.2a3.778,3.778,0,0,1-.246,1.278,2.514,2.514,0,0,1-.659.974,2.958,2.958,0,0,1-1.076.608,4.426,4.426,0,0,1-1.466.2,3.728,3.728,0,0,1-1.7-.362,3.207,3.207,0,0,1-1.165-.957,4.143,4.143,0,0,1-.659-1.363,5.671,5.671,0,0,1,0-3.119,4.143,4.143,0,0,1,.659-1.363,3.25,3.25,0,0,1,1.165-.96,3.729,3.729,0,0,1,1.7-.359,4.429,4.429,0,0,1,1.117.14,3.384,3.384,0,0,1,.967.42,2.524,2.524,0,0,1,.714.7,2.274,2.274,0,0,1,.372.957h2.1a3.936,3.936,0,0,0-.584-1.653,4.144,4.144,0,0,0-1.175-1.189,5.3,5.3,0,0,0-1.609-.717,7.372,7.372,0,0,0-1.9-.243,6.177,6.177,0,0,0-2.473.468,5.541,5.541,0,0,0-1.855,1.261,5.628,5.628,0,0,0-1.162,1.855,6.446,6.446,0,0,0,0,4.506,5.593,5.593,0,0,0,1.162,1.855,5.484,5.484,0,0,0,1.855,1.257,6.359,6.359,0,0,0,2.473.454,5.4,5.4,0,0,0,1.981-.338,5.14,5.14,0,0,0,1.722-1.23l.328,1.305h1.38V36.122H68.921V37.6Z" transform="translate(151.871 73.234)"/><path class="c" d="M75.358,38.865h-.038l-5.616-8.2H67.429V41.793h2.053V33.611h.051l5.6,8.182H77.4V30.666H75.358v8.2Z" transform="translate(162.925 73.422)"/><path class="c" d="M78.933,32.292a3.144,3.144,0,0,0-.98-.591,3.388,3.388,0,0,0-2.395,0,3.11,3.11,0,0,0-.974.591,2.847,2.847,0,0,0-.653.881,2.547,2.547,0,0,0,0,2.169,2.875,2.875,0,0,0,.653.888,3.127,3.127,0,0,0,.974.6,3.388,3.388,0,0,0,2.395,0,3.161,3.161,0,0,0,.98-.6,2.812,2.812,0,0,0,.666-.888,2.546,2.546,0,0,0,0-2.169A2.785,2.785,0,0,0,78.933,32.292Z" transform="translate(178.051 75.394)"/><path class="c" d="M85.294,39.377H85.26l-3.4-8.711h-3.03V41.793h2.05V33.2h.034l3.413,8.588h1.776L89.517,33.2h.034v8.588H91.6V30.666h-3l-3.307,8.711Z" transform="translate(190.483 73.422)"/><path class="c" d="M87.48,37.365l1.858-4.783h.051l1.841,4.783Zm.755-6.7L83.514,41.793h2.224l1.155-2.945H91.8l1.155,2.945h2.309L90.528,30.666Z" transform="translate(201.791 73.422)"/><path class="c" d="M95.158,35.285a2.4,2.4,0,0,1-1.568.444H90.058V32.251h3.495a5.171,5.171,0,0,1,.806.065,1.875,1.875,0,0,1,.687.249,1.282,1.282,0,0,1,.475.523,1.877,1.877,0,0,1,.171.868,1.636,1.636,0,0,1-.533,1.329Zm2.48,3.58a2.9,2.9,0,0,0-.181-1.093A2.06,2.06,0,0,0,97,37.065a1.706,1.706,0,0,0-.594-.4,2.26,2.26,0,0,0-.591-.154V36.48c.1-.034.266-.1.488-.188a2.262,2.262,0,0,0,.68-.461,2.8,2.8,0,0,0,.6-.844,2.92,2.92,0,0,0,.256-1.315,2.643,2.643,0,0,0-1.015-2.214,4.9,4.9,0,0,0-3.047-.793H87.9V41.793h2.156V37.212h3.17a3.569,3.569,0,0,1,1.213.171,1.592,1.592,0,0,1,.752.54,2.14,2.14,0,0,1,.379.919,7.29,7.29,0,0,1,.106,1.315,8,8,0,0,0,.041.844,1.682,1.682,0,0,0,.284.793h2.309a2.194,2.194,0,0,1-.506-1.144,8.694,8.694,0,0,1-.167-1.783Z" transform="translate(212.393 73.422)"/><path class="c" d="M102.348,30.666H99.693l-5.48,5.063V30.666H92.058V41.793h2.156V38.055l1.759-1.575L100,41.793h2.689L97.439,35.1l4.909-4.438Z" transform="translate(222.435 73.422)"/><path class="c" d="M98.271,36.853h6.2V35.261h-6.2V32.347h6.706V30.666H96.119V41.793H105.1V40.109H98.271V36.853Z" transform="translate(232.248 73.422)"/><path class="c" d="M99.559,32.347h3.895v9.446h2.156V32.347h3.912V30.666H99.559v1.681Z" transform="translate(240.559 73.422)"/><rect class="c" width="2.152" height="11.127" transform="translate(353.579 104.088)"/><path class="c" d="M113.408,38.865h-.038l-5.616-8.2h-2.272V41.793h2.046V33.611h.055l5.6,8.182h2.275V30.666h-2.05v8.2Z" transform="translate(254.871 73.422)"/><path class="c" d="M115.653,36.122V37.6h3.273a3.7,3.7,0,0,1-.243,1.278,2.522,2.522,0,0,1-.663.974,2.93,2.93,0,0,1-1.076.608,4.413,4.413,0,0,1-1.466.2,3.723,3.723,0,0,1-1.694-.362,3.207,3.207,0,0,1-1.165-.957,4.15,4.15,0,0,1-.663-1.363,5.758,5.758,0,0,1,0-3.119,4.15,4.15,0,0,1,.663-1.363,3.249,3.249,0,0,1,1.165-.96,3.724,3.724,0,0,1,1.694-.359,4.456,4.456,0,0,1,1.121.14,3.405,3.405,0,0,1,.963.42,2.582,2.582,0,0,1,.717.7,2.226,2.226,0,0,1,.369.957h2.1a3.94,3.94,0,0,0-.588-1.653,4.177,4.177,0,0,0-1.172-1.189,5.285,5.285,0,0,0-1.612-.717,7.353,7.353,0,0,0-1.9-.243,6.2,6.2,0,0,0-2.473.468,5.411,5.411,0,0,0-3.017,3.116,6.5,6.5,0,0,0,0,4.506,5.392,5.392,0,0,0,3.017,3.112,6.384,6.384,0,0,0,2.473.454,5.388,5.388,0,0,0,1.981-.338,5.117,5.117,0,0,0,1.725-1.23l.325,1.305h1.38V36.122h-5.237Z" transform="translate(264.787 73.234)"/><path class="c" d="M39.32,16.309c-.543-.372-1.083-.745-1.64-1.1-.079-.051-.154-.109-.232-.157a1.977,1.977,0,0,0-2.132-.126,1.438,1.438,0,0,0-.6,1.636c.109.888.256,1.773.407,2.658a51.711,51.711,0,0,1,.957,9.671,74.621,74.621,0,0,1-1.114,11.554,50.709,50.709,0,0,1-2.818,10.631,8.572,8.572,0,0,1-2.081,3.358,1.335,1.335,0,0,1-1.954.1,3.622,3.622,0,0,1-1.018-1.076A49.29,49.29,0,0,1,24.688,48.7,80.453,80.453,0,0,1,20.9,36.113c-.888-3.874-1.674-7.769-2.432-11.663-.526-2.7-.892-5.422-1.407-8.12a3.793,3.793,0,0,0-2.326-3.194,9.067,9.067,0,0,0-2.562-.5,12.673,12.673,0,0,0-7.922,2.2A11.4,11.4,0,0,0,.269,19L25.655,60.078a6.694,6.694,0,0,0,1.7.031,7.979,7.979,0,0,0,5.367-3.218,22.035,22.035,0,0,0,3.608-7,51.822,51.822,0,0,0,2.255-9.586c.393-2.736.666-5.493.905-8.247.116-1.329.178-2.654.232-3.973.027-.714.055-1.431.092-2.132.615.1,1.233.212,1.858.318l-.43-8.968A10.162,10.162,0,0,1,39.32,16.309Z" transform="translate(0.649 29.798)"/><path class="d" d="M.918,14.483a.373.373,0,0,0-.02.038A8.687,8.687,0,0,0,.17,20.154,37.389,37.389,0,0,0,2.8,28.647a70.837,70.837,0,0,0,13.1,20.2,26.887,26.887,0,0,0,6.829,5.48,11.932,11.932,0,0,0,2.371.991,7.526,7.526,0,0,0,1.2.239L.918,14.483Z" transform="translate(0 34.32)"/><path class="e" d="M65.757,17.828A18.116,18.116,0,0,0,60.2,14.757a33.062,33.062,0,0,0-6.235-1.565l-3.813,5.931a6.349,6.349,0,0,1,1.346,1.52,13.613,13.613,0,0,1,1.879,6.224,40.246,40.246,0,0,1,0,6.669,45.186,45.186,0,0,1-1.254,7.642,39.553,39.553,0,0,1-3.6,9.268c-2.853-.061-5.613-.147-8.291-.229-1.992-.065-3.956-.126-5.794-.181a48.2,48.2,0,0,1-.919-5.042l-5.7,8.865a13.665,13.665,0,0,0,1.226,2.395,3.5,3.5,0,0,0,2.812,1.8,8.733,8.733,0,0,0,2.405-.26,8.7,8.7,0,0,0,1.223-.345.9.9,0,0,0,.635-1.2c-.055-.2-.113-.4-.164-.6-.239-.888-.465-1.776-.724-2.658.84.055,1.787.113,2.685.167q4.064.256,8.612.533a27.692,27.692,0,0,1-6.843,6.993,27.339,27.339,0,0,1-11.632,4.984c-.2.031-.4.1-.6.123a2.115,2.115,0,0,0-.229.014c-.355.044-.7.068-1.039.1-.307.017-.615.027-.929.027a10.57,10.57,0,0,0-1.066.065,16.964,16.964,0,0,1-3.874-.461L18.4,68.508a26.7,26.7,0,0,0,7.4.027c.536-.065,1.076-.133,1.582-.229a51.991,51.991,0,0,0,14.126-5.063,73.457,73.457,0,0,0,13.638-8.981l11.407-35.69c-.26-.253-.516-.512-.8-.745Z" transform="translate(44.461 31.2)"/><path class="f" d="M64.16,49.481V20.59S83.6,22.274,83.6,35.071C83.6,47.934,67.662,49.348,64.16,49.481Zm-.673-37.647H54.328V52.327A111.761,111.761,0,0,1,39.976,53.67c-2.207.082-4.441.14-6.7.157.434-.43.871-.854,1.295-1.295a40.085,40.085,0,0,0,8.486-12.418A19.2,19.2,0,0,0,44.39,28.731a12.91,12.91,0,0,0-3.249-6.344c-.181-.191-.386-.352-.577-.533L29.157,57.544c.027-.017.058-.038.085-.058,3.225.181,6.375.345,9.3.482,3.59.164,6.839.287,9.395.328,4.434.072,7.926.574,15.172.079h.379s29.8,0,29.8-23.3c0-23.237-29.8-23.237-29.8-23.237Z" transform="translate(70.45 27.919)"/><path class="f" d="M51.021,58.422H85.881V49.529H60.853V39.5H85.881V30.675H60.853V20.638H85.881V11.814H51.021V58.422Z" transform="translate(123.279 27.871)"/><path class="f" d="M80.662,20.638c3.426,0,6.409,1.886,6.556,5.661h9.757c-.147-8.489-7.3-14.485-16.313-14.485-8.489,0-16.388,5.391-16.388,13.812,0,5.654,3.058,10.034,8.568,12.319a21.8,21.8,0,0,0,7.82,1.551c2.979.137,6.556,1.684,6.556,5.049,0,3.167-3.054,4.984-6.556,4.984-3.348,0-6.477-1.886-6.628-5.589h-9.76c.075,8.623,7.376,14.277,16.388,14.482,8.418,0,16.313-5.391,16.313-13.877,0-5.589-2.979-9.962-8.565-12.254a20.752,20.752,0,0,0-7.748-1.616c-3.348,0-6.628-1.684-6.628-5.049,0-3.235,3.054-4.988,6.628-4.988Z" transform="translate(155.302 27.871)"/><rect class="f" width="9.832" height="46.608" transform="translate(262.323 39.685)"/><path class="f" d="M105.507,39.5h14.6V44.75a16.631,16.631,0,0,1-11.772,4.779c-8.865,0-16.012-6.464-16.012-14.41s7.147-14.482,16.012-14.482a17.716,17.716,0,0,1,11.772,4.714l6.928-6.262a27.829,27.829,0,0,0-18.7-7.277c-14.3,0-25.772,10.44-25.772,23.306s11.472,23.3,25.772,23.3a27.11,27.11,0,0,0,11.772-2.494v2.494h9.829V30.675h-24.43Z" transform="translate(199.493 27.871)"/><path class="f" d="M133.061,11.814v30.78l-23.91-30.78H99.609V58.422h9.839V27.577l23.835,30.845h9.535V11.814h-9.757Z" transform="translate(240.68 27.871)"/></g></svg>